<?xml version="1.0" encoding="UTF-8"?>
<svg xmlns="http://www.w3.org/2000/svg" width="500" height="500" viewBox="0 0 500 500">
  <g id="a" data-name="Layer 2">
    <rect width="500" height="500"/>
  </g>
  <g id="b" data-name="Layer 1">
    <g id="c" data-name="SSA LOGO HORIZONTAL NEW">
      <g id="d" data-name="S cutted">
        <path d="M34.824,205.104c0,23.148,66.624,7.634,115.245,18.281v36.29C109.425,243.397,0,274.318,0,205.104c0-37.777,27.778-59.999,100.001-59.999,19.16,0,35.969,2.341,50.07,5.591v35.904c-13.095-3.629-29.927-6.574-50.07-6.574,0,0-65.175-.557-65.175,25.078h-.002Z" fill="#fff"/>
        <path d="M150.071,305.068v40.908c-14.529,5.769-31.566,8.918-50.209,8.918-70.001,0-99.862-24.868-99.862-24.868l17.498-30s27.361,20.044,82.361,20.044c20.854,0,38.546-6.137,50.209-15.001l.002-.002Z" fill="#fff"/>
      </g>
      <g id="e" data-name="S cutted-2">
        <path d="M209.86,205.104c0,23.148,66.624,7.634,115.245,18.281v36.29c-40.646-16.278-150.071,14.641-150.071-54.57,0-37.777,27.778-59.999,100.001-59.999,19.16,0,35.969,2.341,50.07,5.591v35.904c-13.095-3.629-29.927-6.574-50.07-6.574,0,0-65.175-.557-65.175,25.078Z" fill="#fff"/>
        <path d="M325.105,305.068v40.908c-14.529,5.769-31.566,8.918-50.209,8.918-69.999,0-99.86-24.868-99.86-24.868l17.498-30s27.361,20.044,82.361,20.044c20.854,0,38.546-6.137,50.209-15.001v-.002Z" fill="#fff"/>
      </g>
      <g id="f" data-name="A new">
        <polygon points="383.234 297.404 362.813 354.895 397.544 354.895 417.965 297.404 430.284 262.717 450.071 207.012 450.071 145.105 437.328 145.105 395.553 262.717 383.234 297.404" fill="#fff"/>
        <rect x="350.07" y="265.03" width="149.93" height="34.685" fill="#fff"/>
      </g>
    </g>
  </g>
</svg>