<?xml version="1.0" encoding="UTF-8"?>
<svg id="ARTBOARD_2" data-name="ARTBOARD 2" xmlns="http://www.w3.org/2000/svg" viewBox="0 0 2838.53 1190.99">
  <defs>
    <style>
      .cls-1 {
        fill: #fff;
      }
    </style>
  </defs>
  <g id="SSA_LOGO_HORIZONTAL_NEW" data-name="SSA LOGO HORIZONTAL NEW">
    <g id="S_cutted" data-name="S cutted">
      <path class="cls-1" d="M197.7,340.62c0,131.41,378.23,43.34,654.25,103.78v206.02C621.21,558.01,0,733.55,0,340.62,0,126.16,157.7,0,567.71,0,676.48,0,771.91,13.29,851.96,31.74v203.83c-74.34-20.6-169.9-37.32-284.25-37.32,0,0-370-3.16-370,142.37Z"/>
      <path class="cls-1" d="M851.96,908.12v232.24c-82.48,32.75-179.2,50.63-285.04,50.63C169.52,1190.99,0,1049.81,0,1049.81l99.34-170.31s155.33,113.79,467.57,113.79c118.39,0,218.83-34.84,285.04-85.16Z"/>
    </g>
    <g id="S_cutted-2" data-name="S cutted">
      <path class="cls-1" d="M1191.39,340.62c0,131.41,378.23,43.34,654.25,103.78v206.02c-230.75-92.41-851.96,83.12-851.96-309.8C993.68,126.16,1151.38,0,1561.39,0,1670.16,0,1765.59,13.29,1845.64,31.74v203.83c-74.34-20.6-169.9-37.32-284.25-37.32,0,0-370-3.16-370,142.37Z"/>
      <path class="cls-1" d="M1845.64,908.12v232.24c-82.48,32.75-179.2,50.63-285.04,50.63-397.39,0-566.91-141.18-566.91-141.18l99.34-170.31s155.33,113.79,467.57,113.79c118.39,0,218.83-34.84,285.04-85.16Z"/>
    </g>
    <g id="A_new" data-name="A new">
      <polygon class="cls-1" points="2175.64 864.61 2059.71 1190.99 2256.88 1190.99 2372.81 864.61 2442.75 667.69 2555.08 351.45 2555.08 0 2482.74 0 2245.58 667.69 2175.64 864.61"/>
      <rect class="cls-1" x="1987.37" y="680.82" width="851.16" height="196.91"/>
    </g>
  </g>
</svg>