<?xml version="1.0" encoding="UTF-8"?>
<svg id="ARTBOARD_3" data-name="ARTBOARD 3" xmlns="http://www.w3.org/2000/svg" viewBox="0 0 3047.35 1190.99">
  <defs>
    <style>
      .cls-1 {
        fill: none;
        stroke: #fff;
        stroke-linecap: round;
        stroke-miterlimit: 10;
        stroke-width: 70px;
      }
    </style>
  </defs>
  <path class="cls-1" d="M1014.5,339.41c255.38-255.38-217.51-390.92-630.16,21.73-423.73,423.73,873.76-140.68,696.16,384.2C938.44,1165.14,6.72,1195.08,275.68,926.11c393.41-393.41,1196.52-187.22,1664.52-655.22,162-162-281.15-326.15-686.68,79.38-565.95,565.95,943.93,176.36,659.68,460.62-334.47,334.47-1116.24,396.24-774,54C1413.7,590.39,3029.2,90.89,2471.2,90.89c-325.95,0,86.74,995.59,0,990-195.16-12.59,540-1014.89,540-765,0,336.81-2965.98,297.74-2975.07,438.69"/>
</svg>